<?xml version="1.0" encoding="iso-8859-1"?>
<!-- Generator: Adobe Illustrator 19.0.0, SVG Export Plug-In . SVG Version: 6.00 Build 0)  -->
<svg version="1.1" id="Capa_1" xmlns="http://www.w3.org/2000/svg" xmlns:xlink="http://www.w3.org/1999/xlink" x="0px" y="0px"
	 viewBox="0 0 512 512" style="enable-background:new 0 0 512 512;" xml:space="preserve" fill="rgb(153, 153, 153)">
<g>
	<g>
		<path d="M496.5,315.771h-23.115v-29.574c0-33.572-23.962-62.222-56.977-68.123c-4.08-0.729-7.974,1.984-8.703,6.063
			c-0.729,4.077,1.985,7.974,6.063,8.702c25.853,4.621,44.616,27.062,44.616,53.357v29.574h-111.62
			c-6.915-26.166-23.819-48.97-47.088-65.981c10.278-11.364,24.684-17.818,40.164-17.818h41.07c4.142,0,7.5-3.357,7.5-7.5
			s-3.358-7.5-7.5-7.5h-41.07c-0.265,0-0.528,0.008-0.793,0.011c-4.941-25.286-22.125-62.634-32.411-83.556
			c-2.339-4.756-6.878-7.951-12.142-8.547c-5.267-0.597-10.403,1.505-13.745,5.618c-8.388,10.325-17.404,21.906-25.672,33.509
			c-13.269-18.43-51.46-42.008-82.274-59.077c-4.637-2.566-10.188-2.597-14.849-0.078c-4.661,2.519-7.678,7.178-8.071,12.463
			c-0.568,7.638-1.322,19.456-1.688,32.385c-0.117,4.141,3.145,7.592,7.285,7.709c4.139,0.108,7.591-3.145,7.709-7.285
			c0.357-12.644,1.096-24.215,1.652-31.696c0.007-0.096,0.019-0.258,0.243-0.379c0.225-0.121,0.366-0.043,0.45,0.004
			c42.922,23.775,72.385,45.072,78.813,56.97c0.48,0.887,0.921,1.799,1.337,2.715c-9.311,14.267-16.596,27.803-19.177,38.217
			l-23.818-44.083c-1.969-3.644-6.518-5.002-10.164-3.033c-3.645,1.969-5.002,6.52-3.034,10.164l21.215,39.266
			c-4.533-0.329-9.116-0.497-13.74-0.497c-8.56,0-16.996,0.563-25.277,1.672c-0.857-1.251-1.674-2.534-2.396-3.87
			c-2.056-3.805-4.736-12.429-5.83-31.903c-0.232-4.135-3.782-7.288-7.909-7.067c-4.136,0.232-7.3,3.773-7.068,7.909
			c0.998,17.78,3.421,30.137,7.394,37.767c-8.726,1.966-17.251,4.561-25.53,7.801c-3.857,1.51-5.76,5.86-4.25,9.718
			c1.475,3.771,5.663,5.664,9.452,4.34v71.635H96.5v-47.895c0-0.255-0.013-0.508-0.038-0.757c2.211-1.858,4.491-3.667,6.869-5.401
			c3.347-2.44,4.081-7.132,1.64-10.479c-2.441-3.348-7.132-4.083-10.479-1.641c-23.885,17.419-40.589,40.823-47.314,66.172H15.5
			c-8.547,0-15.5,6.953-15.5,15.5v30.582c0,8.547,6.953,15.5,15.5,15.5h23.115v16.164c0,8.547,6.953,15.5,15.5,15.5h33.351
			c8.547,0,15.5-6.953,15.5-15.5v-16.164h306.069v16.164c0,8.547,6.953,15.5,15.5,15.5h33.351c8.547,0,15.5-6.953,15.5-15.5v-16.164
			H496.5c8.547,0,15.5-6.953,15.5-15.5v-30.583C512,322.725,505.047,315.771,496.5,315.771z M312.729,282.253
			c8.336,10.079,14.639,21.361,18.427,33.518h-18.427V282.253z M240.555,222.235c1.521-13.435,20.9-44.194,51.839-82.277
			c0.061-0.076,0.165-0.202,0.416-0.172c0.253,0.028,0.325,0.174,0.367,0.261c7.934,16.136,25.88,54.272,30.931,78.708
			c-13.375,3.086-25.512,10.095-34.984,20.321l3.805-33.633c0.465-4.115-2.494-7.829-6.609-8.295
			c-4.118-0.486-7.83,2.492-8.296,6.609l-3.518,31.091c-10.618-5.052-22.026-9.094-34.01-11.972
			C240.517,222.663,240.531,222.448,240.555,222.235z M297.761,267.229c-0.018,0.214-0.033,0.429-0.033,0.648v47.895h-39.057
			v-71.531C273.343,250.027,286.579,257.827,297.761,267.229z M204.614,232.942c13.586,0.589,26.708,2.735,39.057,6.238v76.591
			h-39.057V232.942z M150.557,239.093c12.542-3.554,25.61-5.615,39.057-6.166v82.845h-39.057V239.093z M81.5,282.092v33.68H62.816
			C66.575,303.827,72.924,292.406,81.5,282.092z M87.966,393.518L87.966,393.518c-0.001,0.275-0.225,0.5-0.501,0.5h-33.35
			c-0.276,0-0.5-0.225-0.5-0.5v-16.164h34.351V393.518z M458.385,393.518c0,0.275-0.224,0.5-0.5,0.5h-33.351
			c-0.276,0-0.5-0.225-0.5-0.5v-16.164h34.351V393.518z M497,361.853c0,0.275-0.224,0.5-0.5,0.5h-481c-0.276,0-0.5-0.225-0.5-0.5
			v-7.791h204.779c4.142,0,7.5-3.357,7.5-7.5s-3.358-7.5-7.5-7.5H15v-7.791c0-0.275,0.224-0.5,0.5-0.5h481
			c0.276,0,0.5,0.225,0.5,0.5V361.853z"/>
	</g>
</g>
<g>
	<g>
		<path d="M347,339.062h-56c-4.142,0-7.5,3.357-7.5,7.5s3.358,7.5,7.5,7.5h56c4.142,0,7.5-3.357,7.5-7.5
			S351.142,339.062,347,339.062z"/>
	</g>
</g>
<g>
	<g>
		<path d="M427.382,339.062h-11.885c-4.142,0-7.5,3.357-7.5,7.5s3.358,7.5,7.5,7.5h11.885c4.142,0,7.5-3.357,7.5-7.5
			S431.524,339.062,427.382,339.062z"/>
	</g>
</g>
<g>
</g>
<g>
</g>
<g>
</g>
<g>
</g>
<g>
</g>
<g>
</g>
<g>
</g>
<g>
</g>
<g>
</g>
<g>
</g>
<g>
</g>
<g>
</g>
<g>
</g>
<g>
</g>
<g>
</g>
</svg>
